<svg xmlns="http://www.w3.org/2000/svg" viewBox="0 0 128 128">
<rect x="8" y="24" width="112" height="88" rx="4" fill="#5D4037"/>
<rect x="12" y="28" width="104" height="80" rx="3" fill="#6D4C41"/>
<rect x="16" y="32" width="96" height="10" fill="#33691E"/>
<rect x="16" y="46" width="96" height="10" fill="#388E3C"/>
<rect x="16" y="60" width="96" height="10" fill="#33691E"/>
<rect x="16" y="74" width="96" height="10" fill="#388E3C"/>
<rect x="16" y="88" width="96" height="10" fill="#33691E"/>
<g fill="#4CAF50">
<circle cx="24" cy="37" r="3"/><circle cx="56" cy="37" r="3"/><circle cx="88" cy="37" r="3"/>
<circle cx="40" cy="51" r="3"/><circle cx="72" cy="51" r="3"/><circle cx="104" cy="51" r="3"/>
<circle cx="24" cy="65" r="3"/><circle cx="56" cy="65" r="3"/><circle cx="88" cy="65" r="3"/>
<circle cx="40" cy="79" r="3"/><circle cx="72" cy="79" r="3"/><circle cx="104" cy="79" r="3"/>
<circle cx="24" cy="93" r="3"/><circle cx="56" cy="93" r="3"/><circle cx="88" cy="93" r="3"/>
</g>
<rect x="8" y="108" width="112" height="8" rx="2" fill="#1565C0" opacity="0.6"/>
<line x1="100" y1="18" x2="100" y2="38" stroke="#795548" stroke-width="2"/>
<line x1="90" y1="26" x2="110" y2="26" stroke="#795548" stroke-width="2"/>
<circle cx="100" cy="16" r="4" fill="#FFCC80"/>
</svg>