<svg xmlns="http://www.w3.org/2000/svg" viewBox="0 0 96 96">
<ellipse cx="48" cy="94" rx="40" ry="4" fill="rgba(0,0,0,0.18)"/>
<!-- 泥围 -->
<rect x="6" y="16" width="84" height="72" rx="3" fill="#5D4037"/>
<rect x="9" y="19" width="78" height="66" rx="2" fill="#6D4C41"/>
<!-- 垄沟 -->
<rect x="12" y="22" width="72" height="8" fill="#33691E"/>
<rect x="12" y="33" width="72" height="8" fill="#388E3C"/>
<rect x="12" y="44" width="72" height="8" fill="#33691E"/>
<rect x="12" y="55" width="72" height="8" fill="#388E3C"/>
<rect x="12" y="66" width="72" height="8" fill="#33691E"/>
<!-- 稻苗 -->
<g fill="#4CAF50">
<circle cx="20" cy="26" r="2.5"/><circle cx="44" cy="26" r="2.5"/><circle cx="68" cy="26" r="2.5"/>
<circle cx="32" cy="37" r="2.5"/><circle cx="56" cy="37" r="2.5"/><circle cx="76" cy="37" r="2.5"/>
<circle cx="20" cy="48" r="2.5"/><circle cx="44" cy="48" r="2.5"/><circle cx="68" cy="48" r="2.5"/>
<circle cx="32" cy="59" r="2.5"/><circle cx="56" cy="59" r="2.5"/><circle cx="76" cy="59" r="2.5"/>
<circle cx="20" cy="70" r="2.5"/><circle cx="44" cy="70" r="2.5"/><circle cx="68" cy="70" r="2.5"/>
</g>
<!-- 水渠 -->
<rect x="6" y="86" width="84" height="5" rx="2" fill="#1565C0" opacity="0.5"/>
<!-- 稻草人 -->
<line x1="80" y1="10" x2="80" y2="28" stroke="#6B4F3A" stroke-width="2"/>
<line x1="72" y1="16" x2="88" y2="16" stroke="#6B4F3A" stroke-width="2"/>
<circle cx="80" cy="8" r="3.5" fill="#FFCC80"/>
</svg>