<svg xmlns="http://www.w3.org/2000/svg" viewBox="0 0 96 96">
<ellipse cx="48" cy="94" rx="40" ry="5" fill="rgba(0,0,0,0.18)"/>
<!-- 矿山 -->
<polygon points="14,80 48,18 82,80" fill="#616161"/>
<polygon points="20,80 48,26 76,80" fill="#757575"/>
<!-- 矿洞 -->
<path d="M34,80 Q34,56 48,54 Q62,56 62,80 Z" fill="#263238"/>
<path d="M38,80 Q38,60 48,58 Q58,60 58,80 Z" fill="#1a1a2e"/>
<!-- 矿车 -->
<rect x="40" y="82" width="16" height="8" rx="2" fill="#78909C"/>
<rect x="42" y="78" width="12" height="5" fill="#607D8B"/>
<!-- 矿灯 -->
<circle cx="48" cy="60" r="3" fill="#FFF176" opacity="0.5"/>
<!-- 支撑木 -->
<rect x="34" y="54" width="3" height="26" fill="#4A3728"/>
<rect x="59" y="54" width="3" height="26" fill="#4A3728"/>
<rect x="34" y="54" width="28" height="3" fill="#6B4F3A"/>
<!-- 矿石 -->
<circle cx="24" cy="74" r="3" fill="#455A64"/>
<circle cx="70" cy="70" r="2.5" fill="#546E7A"/>
</svg>