<svg xmlns="http://www.w3.org/2000/svg" viewBox="0 0 128 128">
<ellipse cx="64" cy="108" rx="52" ry="14" fill="#5D4037"/>
<rect x="14" y="76" width="18" height="10" rx="5" fill="#8B6914" transform="rotate(-5,23,81)"/>
<rect x="10" y="84" width="20" height="10" rx="5" fill="#A38040"/>
<rect x="12" y="92" width="22" height="10" rx="5" fill="#6B4F12"/>
<rect x="38" y="62" width="52" height="40" fill="#A38040"/>
<rect x="42" y="66" width="44" height="34" fill="#BFA76A"/>
<polygon points="32,66 64,36 96,66" fill="#8B6914"/>
<polygon points="36,66 64,40 92,66" fill="#A38040"/>
<rect x="54" y="74" width="20" height="28" rx="2" fill="#5D4037"/>
<line x1="98" y1="58" x2="108" y2="88" stroke="#795548" stroke-width="3"/>
<path d="M104,56 L112,62 L106,68 Z" fill="#9E9E9E"/>
<ellipse cx="106" cy="94" rx="10" ry="6" fill="#6B4F12"/>
<ellipse cx="106" cy="92" rx="10" ry="5" fill="#8B6914"/>
</svg>