<svg xmlns="http://www.w3.org/2000/svg" viewBox="0 0 96 96">
<ellipse cx="48" cy="94" rx="42" ry="5" fill="rgba(0,0,0,0.18)"/>
<!-- 石堆 -->
<ellipse cx="48" cy="80" rx="42" ry="14" fill="#616161"/>
<ellipse cx="48" cy="76" rx="38" ry="12" fill="#757575"/>
<!-- 小棚 -->
<rect x="8" y="50" width="28" height="22" fill="#C4B8A4"/>
<rect x="10" y="52" width="24" height="18" fill="#D7CCC8"/>
<path d="M-1.5599999999999996,52 Q22,36.6 45.56,52" fill="#A0422D"/>
<path d="M0.26400000000000023,46.4 Q22,40.8 43.736,46.4 L45.56,52 Q22,45 -1.5599999999999996,52 Z" fill="#7B2D26" opacity="0.4"/>
<line x1="8.700000000000001" y1="39" x2="35.3" y2="39" stroke="#D4A849" stroke-width="1.5"/>
<circle cx="-1.5599999999999996" cy="50.74" r="1.5" fill="#D4A849"/>
<circle cx="45.56" cy="50.74" r="1.5" fill="#D4A849"/>
<rect x="16" y="58" width="12" height="14" rx="1" fill="#3E2C1E"/>
<rect x="17" y="59" width="4.5" height="12" fill="#5D4037"/>
<rect x="22.5" y="59" width="4.5" height="12" fill="#5D4037"/>
<circle cx="22" cy="65.7" r="1.2" fill="#D4A849"/>
<!-- 吊臂 -->
<rect x="60" y="20" width="3" height="56" fill="#6B4F3A"/>
<line x1="61" y1="20" x2="82" y2="20" stroke="#6B4F3A" stroke-width="2.5"/>
<line x1="82" y1="20" x2="82" y2="42" stroke="#666" stroke-width="1.2"/>
<rect x="76" y="42" width="12" height="10" fill="#9E9E9E"/>
<!-- 碎石 -->
<circle cx="52" cy="70" r="4" fill="#BDBDBD"/>
<circle cx="64" cy="66" r="3" fill="#9E9E9E"/>
<circle cx="40" cy="72" r="3" fill="#B0BEC5"/>
</svg>