<svg xmlns="http://www.w3.org/2000/svg" viewBox="0 0 96 96">
<ellipse cx="48" cy="94" rx="40" ry="5" fill="rgba(0,0,0,0.18)"/>
<rect x="22" y="76" width="56" height="18" fill="#7A6B55"/>
<rect x="22" y="76" width="56" height="5.3999999999999995" fill="#9E8E75"/>
<line x1="22" y1="85" x2="78" y2="85" stroke="#5D4E3C" stroke-width="0.5" opacity="0.5"/>
<!-- 小屋 -->
<rect x="24" y="44" width="52" height="34" fill="#C4B8A4"/>
<rect x="28" y="48" width="44" height="28" fill="#D7CCC8"/>
<!-- 屋顶 -->
<path d="M9.08,46 Q50,26.2 90.92,46" fill="#A0422D"/>
<path d="M12.248000000000001,38.8 Q50,31.6 87.752,38.8 L90.92,46 Q50,37 9.08,46 Z" fill="#7B2D26" opacity="0.4"/>
<line x1="26.900000000000002" y1="29" x2="73.1" y2="29" stroke="#D4A849" stroke-width="1.5"/>
<circle cx="9.08" cy="44.38" r="1.5" fill="#D4A849"/>
<circle cx="90.92" cy="44.38" r="1.5" fill="#D4A849"/>
<!-- 门 -->
<rect x="40" y="58" width="18" height="18" rx="1" fill="#3E2C1E"/>
<rect x="41" y="59" width="7.5" height="16" fill="#5D4037"/>
<rect x="49.5" y="59" width="7.5" height="16" fill="#5D4037"/>
<circle cx="49" cy="67.9" r="1.2" fill="#D4A849"/>
<!-- 水车 -->
<circle cx="14" cy="60" r="18" fill="none" stroke="#6B4F3A" stroke-width="3"/>
<circle cx="14" cy="60" r="14" fill="none" stroke="#4A3728" stroke-width="1"/>
<line x1="14" y1="42" x2="14" y2="78" stroke="#6B4F3A" stroke-width="2"/>
<line x1="-4" y1="60" x2="32" y2="60" stroke="#6B4F3A" stroke-width="2"/>
<line x1="2" y1="48" x2="26" y2="72" stroke="#6B4F3A" stroke-width="1.5"/>
<line x1="2" y1="72" x2="26" y2="48" stroke="#6B4F3A" stroke-width="1.5"/>
<circle cx="14" cy="60" r="3" fill="#4A3728"/>
<!-- 水面 -->
<path d="M0,82 Q12,78 24,82 T48,82" fill="none" stroke="#1565C0" stroke-width="1.5" opacity="0.5"/>
<rect x="0" y="84" width="48" height="10" fill="#1565C0" opacity="0.2"/>
</svg>